<?xml version="1.0" standalone="no"?>
<!DOCTYPE svg PUBLIC "-//W3C//DTD SVG 20010904//EN"
 "http://www.w3.org/TR/2001/REC-SVG-20010904/DTD/svg10.dtd">
<svg version="1.0" xmlns="http://www.w3.org/2000/svg"
 width="303.000000pt" height="303.000000pt" viewBox="0 0 303.000000 303.000000"
 preserveAspectRatio="xMidYMid meet">
<metadata>
Created by potrace 1.11, written by Peter Selinger 2001-2013
</metadata>
<g transform="translate(0.000000,303.000000) scale(0.100000,-0.100000)"
fill="#000000" stroke="none">
<path d="M1350 2964 c-167 -21 -354 -79 -510 -160 -398 -206 -684 -596 -767
-1044 -23 -128 -24 -381 0 -506 36 -195 116 -394 228 -564 83 -127 271 -314
399 -399 497 -328 1119 -333 1615 -13 330 213 554 541 641 942 26 120 27 438
1 560 -128 598 -564 1037 -1157 1165 -73 16 -374 28 -450 19z m260 -223 c0 -5
-11 -29 -25 -52 -39 -69 -30 -88 25 -49 15 11 30 17 34 13 3 -3 6 -30 6 -58 0
-28 -3 -55 -6 -58 -4 -4 -19 2 -34 13 -39 27 -50 25 -50 -10 0 -23 6 -33 24
-40 36 -13 56 -49 56 -100 0 -38 -5 -51 -30 -75 -56 -53 -134 -28 -161 52 -9
27 -7 40 8 71 10 20 30 43 46 50 22 11 27 20 27 48 l0 36 -34 -21 c-18 -12
-36 -21 -40 -21 -3 0 -6 29 -6 65 0 36 2 65 5 65 3 0 19 -10 35 -22 40 -29 50
-15 22 32 -35 62 -31 70 38 70 33 0 60 -4 60 -9z m-217 -382 c14 -23 1 -66
-24 -72 -22 -6 -59 23 -59 47 0 40 62 59 83 25z m371 5 c22 -22 20 -50 -6 -68
-12 -9 -26 -16 -30 -16 -15 0 -38 33 -38 54 0 43 44 61 74 30z m-500 -30 c34
-34 8 -82 -39 -70 -19 5 -25 13 -25 34 0 48 34 67 64 36z m621 -8 c13 -19 14
-29 5 -45 -14 -27 -56 -28 -70 -2 -14 27 -13 37 6 55 22 23 41 20 59 -8z
m-730 -70 c0 -36 -26 -56 -49 -37 -31 26 -11 75 29 69 15 -2 20 -11 20 -32z
m835 19 c26 -31 -13 -82 -44 -56 -16 14 -22 52 -9 64 11 12 40 8 53 -8z m-109
-55 c149 -54 409 -211 409 -247 0 -30 -31 -22 -93 26 -36 27 -96 66 -132 86
-140 79 -345 149 -367 127 -6 -6 -21 -46 -33 -89 -18 -61 -27 -78 -41 -78 -15
0 -18 6 -15 25 5 36 52 183 62 196 12 14 97 -5 210 -46z m-443 -2 c25 -64 40
-115 44 -148 2 -19 -2 -25 -16 -25 -15 0 -23 14 -36 60 -26 90 -38 115 -56
115 -34 0 -229 -72 -313 -115 -47 -25 -119 -70 -160 -100 -66 -50 -76 -55 -89
-41 -14 13 -13 17 9 36 45 38 184 128 249 161 86 43 277 109 316 109 29 0 33
-5 52 -52z m137 18 c0 -36 -26 -56 -49 -37 -16 14 -22 52 -9 65 4 4 19 6 33 4
20 -2 25 -8 25 -32z m-516 -15 c13 -24 -8 -55 -35 -49 -20 3 -30 29 -20 54 8
20 43 17 55 -5z m1026 -16 c0 -35 -31 -47 -51 -20 -18 25 0 57 29 53 17 -2 22
-10 22 -33z m-1127 -64 c-4 -31 -35 -36 -52 -8 -9 14 -7 21 7 32 27 19 49 8
45 -24z m1232 0 c0 -17 -18 -31 -40 -31 -5 0 -14 9 -20 19 -7 15 -6 23 6 35
19 20 54 5 54 -23z m-620 14 c17 -21 5 -45 -24 -45 -27 0 -42 26 -25 46 15 18
33 18 49 -1z m-705 -75 c0 -29 -32 -41 -41 -16 -9 24 4 48 23 44 12 -2 18 -12
18 -28z m1400 0 c0 -29 -32 -41 -41 -16 -9 24 4 48 23 44 12 -2 18 -12 18 -28z
m-1105 -116 c7 -30 9 -62 6 -70 -7 -18 -4 -18 42 6 35 18 43 19 78 8 72 -24
94 -117 43 -182 -21 -27 -39 -27 -39 1 0 50 -85 73 -114 31 -45 -64 14 -159
108 -173 92 -14 179 35 211 120 24 63 17 71 -35 36 -24 -16 -48 -27 -52 -25
-12 8 -10 192 3 200 6 3 28 -11 50 -32 46 -44 48 -35 14 46 -14 33 -25 64 -25
70 0 6 36 10 95 10 52 0 95 -4 95 -8 0 -5 -11 -36 -25 -70 -34 -84 -32 -92 14
-48 22 21 44 35 50 32 13 -8 15 -192 3 -200 -4 -2 -28 9 -52 25 -52 35 -59 27
-35 -36 46 -123 208 -164 297 -75 42 42 50 88 22 128 -30 44 -114 19 -114 -35
0 -31 -14 -29 -38 5 -48 67 -32 151 33 178 39 16 65 12 105 -16 l26 -18 0 51
c1 58 27 118 68 156 l26 24 16 -39 c13 -30 15 -58 11 -120 l-6 -82 36 8 c47
11 100 -7 127 -43 32 -44 29 -123 -7 -170 -15 -20 -32 -37 -38 -37 -5 0 -9 18
-9 40 0 80 -84 121 -129 64 -37 -47 -19 -122 41 -168 68 -52 206 -28 257 43
26 36 54 101 47 108 -7 8 -42 -6 -81 -33 -21 -14 -39 -24 -40 -22 -8 8 36 187
51 207 2 2 23 -12 48 -30 25 -18 49 -30 52 -26 4 3 -8 31 -25 63 -18 31 -30
58 -27 61 9 9 138 -20 143 -32 2 -7 -3 -32 -12 -58 -10 -30 -13 -60 -9 -86 6
-36 3 -45 -24 -75 -55 -62 -84 -189 -68 -296 4 -25 3 -49 -1 -55 -16 -21 -122
-105 -131 -105 -5 0 -34 11 -63 24 -136 60 -332 87 -629 87 -320 1 -481 -23
-677 -102 -30 -12 -34 -11 -70 22 -22 19 -52 45 -67 57 -25 21 -27 28 -20 60
22 101 -8 243 -66 308 -33 38 -34 42 -21 78 8 18 5 39 -10 81 -11 31 -17 60
-15 64 6 9 144 36 150 30 3 -2 -11 -30 -31 -62 -19 -32 -33 -60 -30 -63 7 -7
60 21 76 40 8 9 17 16 21 16 11 0 39 -85 49 -149 9 -56 3 -61 -37 -32 -15 10
-38 22 -51 26 -23 7 -24 6 -17 -26 9 -48 50 -102 95 -127 58 -33 159 -31 199
3 34 28 62 82 62 118 0 13 -9 36 -21 51 -45 57 -129 16 -129 -64 0 -22 -4 -40
-9 -40 -6 0 -23 17 -38 37 -36 47 -39 126 -7 170 27 36 80 54 127 43 l36 -8
-6 82 c-4 63 -2 90 12 121 l17 40 38 -43 c28 -32 42 -58 50 -98z m406 87 c-9
-14 -33 -14 -41 -1 -4 6 -1 18 6 26 11 13 14 13 27 0 8 -8 11 -19 8 -25z
m-773 -25 c9 -22 -19 -42 -37 -26 -19 15 -10 40 14 40 10 0 20 -6 23 -14z
m1553 3 c3 -6 0 -17 -7 -25 -18 -17 -44 -2 -36 20 7 18 33 21 43 5z m-579
-730 c219 -18 429 -69 441 -106 8 -28 -114 -62 -312 -89 -150 -19 -553 -19
-702 0 -198 27 -320 61 -312 89 16 52 351 113 635 116 67 0 180 -4 250 -10z
m-333 -373 c57 -31 66 -49 37 -80 l-24 -25 -31 24 c-143 109 -309 -81 -182
-209 55 -55 130 -55 186 -1 l27 26 22 -27 c11 -15 21 -32 21 -39 0 -31 -102
-84 -161 -85 -84 0 -154 44 -193 122 -43 86 -32 194 27 256 66 71 182 87 271
38z m403 -2 c57 -33 60 -41 27 -75 l-28 -29 -29 27 c-38 37 -116 40 -164 5
-45 -32 -69 -98 -53 -149 34 -105 141 -141 221 -73 l33 27 23 -28 c13 -15 21
-33 18 -41 -8 -21 -84 -67 -122 -74 -153 -29 -296 129 -253 280 39 139 199
203 327 130z m333 25 c146 -33 217 -186 146 -315 -110 -197 -382 -145 -412 79
-14 100 55 207 151 232 62 17 60 17 115 4z m-1295 -86 c-1 -46 2 -83 5 -83 3
0 41 38 85 86 80 85 80 86 125 82 l44 -3 -87 -95 c-47 -52 -87 -99 -87 -105 0
-5 22 -35 48 -66 26 -30 67 -78 90 -107 l44 -52 -54 0 -54 0 -73 90 c-41 50
-77 90 -81 90 -3 0 -6 -39 -5 -87 l0 -88 -42 -3 -43 -3 0 216 0 216 43 -3 42
-3 0 -82z"/>
<path d="M1496 2461 c-17 -19 -17 -20 3 -30 29 -16 31 -14 31 19 0 35 -10 38
-34 11z"/>
<path d="M1564 2467 c-7 -19 1 -47 13 -47 4 0 15 5 23 10 13 8 12 13 -7 32
-20 19 -23 20 -29 5z"/>
<path d="M1490 2355 c0 -20 44 -37 76 -29 29 7 31 20 5 34 -30 16 -81 13 -81
-5z"/>
<path d="M1530 1815 c0 -8 7 -15 15 -15 8 0 15 7 15 15 0 8 -7 15 -15 15 -8 0
-15 -7 -15 -15z"/>
<path d="M2422 1748 c-15 -15 -16 -61 0 -56 15 5 28 42 19 56 -5 9 -10 9 -19
0z"/>
<path d="M650 1733 c0 -30 17 -50 31 -36 8 8 8 16 0 32 -14 26 -31 27 -31 4z"/>
<path d="M1521 1521 c-26 -36 -26 -35 2 -76 l23 -33 22 34 c21 32 21 36 7 64
-22 42 -31 44 -54 11z"/>
<path d="M1102 1510 c-81 -50 -52 -130 48 -130 67 0 110 32 110 83 0 20 -8 32
-32 47 -42 25 -84 25 -126 0z"/>
<path d="M1330 1510 c0 -13 7 -20 20 -20 13 0 20 7 20 20 0 13 -7 20 -20 20
-13 0 -20 -7 -20 -20z"/>
<path d="M1720 1510 c0 -13 7 -20 20 -20 13 0 20 7 20 20 0 13 -7 20 -20 20
-13 0 -20 -7 -20 -20z"/>
<path d="M1875 1518 c-53 -29 -59 -74 -14 -112 43 -36 119 -37 154 -1 29 28
31 42 9 74 -30 42 -106 63 -149 39z"/>
<path d="M913 1444 c-3 -8 -1 -20 6 -27 14 -14 47 15 37 32 -10 16 -36 13 -43
-5z"/>
<path d="M2137 1446 c-8 -19 15 -37 32 -26 17 10 7 40 -13 40 -7 0 -16 -6 -19
-14z"/>
<path d="M1342 1413 c5 -26 38 -29 38 -4 0 15 -6 21 -21 21 -14 0 -19 -5 -17
-17z"/>
<path d="M1710 1409 c0 -25 33 -22 38 4 2 12 -3 17 -17 17 -15 0 -21 -6 -21
-21z"/>
<path d="M761 1378 c-7 -18 -4 -28 15 -48 21 -21 26 -23 34 -10 15 23 12 51
-7 66 -25 19 -32 17 -42 -8z"/>
<path d="M2286 1381 c-12 -13 -15 -27 -10 -45 7 -31 12 -31 42 -6 17 14 21 25
16 44 -7 31 -24 33 -48 7z"/>
<path d="M2126 1363 c-14 -15 -5 -43 14 -43 13 0 20 7 20 19 0 19 -23 35 -34
24z"/>
<path d="M932 1343 c5 -26 38 -29 38 -4 0 15 -6 21 -21 21 -14 0 -19 -5 -17
-17z"/>
<path d="M2064 866 c-91 -41 -106 -167 -30 -234 49 -43 86 -48 141 -22 99 48
111 186 20 246 -34 22 -94 27 -131 10z"/>
</g>
</svg>
